<?xml version="1.0" encoding="utf-8"?>
<!-- Generator: Adobe Illustrator 16.0.3, SVG Export Plug-In . SVG Version: 6.00 Build 0)  -->
<!DOCTYPE svg PUBLIC "-//W3C//DTD SVG 1.1//EN" "http://www.w3.org/Graphics/SVG/1.1/DTD/svg11.dtd">
<svg version="1.1" id="Layer_1" xmlns="http://www.w3.org/2000/svg" xmlns:xlink="http://www.w3.org/1999/xlink" x="0px" y="0px"
	 width="317.281px" height="317.28px" viewBox="0 0 317.281 317.28" enable-background="new 0 0 317.281 317.28"
	 xml:space="preserve">
<g>
	<g>
		<circle fill="#FFCC08" cx="158.641" cy="158.64" r="158.641"/>
		<g>
			<circle fill="#F5C400" cx="158.641" cy="158.64" r="158.641"/>
		</g>
	</g>
	<g>
		<path fill="#041E41" d="M201.626,61.483c1.616,2.338,8.466,9.617,11.085,11.322c2.643,1.717,3.608,1.627,4.985,4.346
			c0.902,1.772,0.831,3.486,2.006,5.175c2.066,2.956,6.441,5.524,10.02,6.748c7.895,2.702,17.498,4.005,24.287-0.419
			c6.444-4.197,10.73-9.076,11.041-17.044c0.209-5.329-0.353-10.921-1.887-15.979c-1.197-3.951-2.357-9.74-5.03-11.457
			C248.552,34.893,204.661,58.025,201.626,61.483z M230.059,75.776c0.359-1.365,1.751-3.563,4.04-5.279
			c3.626-4.004,3.342-2.86,3.914-6.753c0.606-4.116,0.532-8.2,2.987-11.731c2.006-2.883,4.479-5.492,7.859-6.621
			c2.717-0.906,5.651,0.309,7.369,2.026c2.668,4.769,3.518,13.325,2.784,21.993c-0.502,5.995-2.069,13.267-8.474,15.507
			c-5.644,1.97-13.866,2.513-18.284-2.407C230.825,80.915,229.485,77.94,230.059,75.776z"/>
		<path fill="#041E41" d="M67.666,100.601c-0.527,7.016,2.384,5.959,2.912,5.297c0.391-0.487,3.148-8.478,7.787-12.467
			c0.012-2.894,0.841-6.393,3.242-8.656c2.09-1.969,6.24-4.724,7.719-2.889c0.563-0.297,1.156-0.548,1.811-0.683
			c1.318-0.274,2.409,0.449,3.116,1.427c3.043-2.041,6.368,0.589,7.915,3.271c0.988-1.295,2.054-2.112,3.129-2.185
			c0.162-0.009,0.32-0.001,0.478,0.018c5.866,5.902,26.441,18.178,36.223,22.299c4.079,1.717,7.556,4.7,10.483,8.248
			c-1.977,2.324-4.922,5.322-6.282,4.777c-1.115-0.447-1.729-3.909-1.877-7.1c-2.384,1.628-3.274,4.843-4.873,4.055
			c-1.557-0.764-1.97-5.295-2.279-8.832c-2.85,2.016-4.193,6.957-5.797,6.317c-1.593-0.636-2.159-7.392-1.812-10.764
			c-2.289,3.64-3.501,8.206-4.871,7.522c-1.787-0.895-5.813-8.387-3.982-12.188c-2.832,2.232-3.668,6.518-5.217,5.898
			c-1.557-0.623-2.135-7.098-1.834-10.537c-8.496,6.736-12.878,17.212-14.049,16.626c-3.764-1.88-2.83-11.922-0.115-19.048
			c-4.004,2.383-5.231,7.072-7.563,6.736c-1.581-0.225-1.749-4.041-1.091-7.784c-1.736,2.897-3.332,6.558-5.791,7.788
			c-1.301,0.647-1.907-1.777-1.597-4.957c-1.132,1.832-1.909,3.872-2.624,4.916c5.161,10.659,13.024,26.108,16.254,32.572
			c4.503,8.998,3.439,27.002,0.266,33.092c-2.211,4.238-5.192,11.422-7.962,16.023c1.297,1.937,2.847,4.487,5.063,6.052
			c-0.355-4.279,0.512-9.097,2.985-10.257c0.928-0.438,6.828,5.633,10.176,8.294c-1.109,1.099-2.474,2.38-4.7,3.744
			c-4.548,2.781-4.174,3.762-11.322,2.968c-1.361-0.151-2.762-0.362-4.124-0.578c-0.671-1.669-1.246-3.918-1.593-6.074
			c-0.49,0.27-0.991,0.582-1.485,0.929c-1.242-2.467-2.455-5.232-4.246-6.411c-0.915-0.601-1.42,0.819-1.388,2.984
			c-3.404-2.363-4.137-9.046-5.639-8.92c-1.732,0.142-3.55,9.038,0.766,13.72c1.049,1.138,2.684,2.53,4.218,3.316
			c-0.46,0.342-0.595,0.887-0.251,1.745c1.591,3.972,8.55,13.178,16.887,13.571c8.338,0.4,22.635,0.4,34.15-7.942
			c11.517-8.338,72.273,30.456,77.037,31.376c5.524,1.063,33.353,18.148,44.872,25.016c9.107,5.429,18.41,8.525,27.358,10.12
			c24.293-27.92,39.035-64.37,39.035-104.287c0-3.213-0.123-6.396-0.313-9.561c-7.941,34.707-33.433,68.483-77.376,86.317
			c58.463-32.095,70.769-78.864,65.282-120.854c-0.786,41.63-26.954,86.483-80.071,108.041c47.66-26.169,64.647-62.088,66.328-97.22
			c-9.524,32.352-34.499,63.054-75.669,79.757c41.791-22.94,59.995-53.379,64.98-84.21c-5.218,8.138-12.04,15.041-20.158,19.716
			c-20.067,11.553-58.124,18.93-79.617-7.557c26.482,11.899,40.304,6.396,40.304,3.005c-4.993,2.624-37.299-10.823-54.032-29.945
			c32.776,20.439,54.229,12.964,57.434,11.645c-38.473-5.217-52.896-33.975-69.496-32.471c4.376-5.445,19.834-6.497,29.114-5.973
			c11.254,0.636,11.516,0.768,11.516,0.768s-2.556-6.653-15.218-17.035c-16.77-13.756-43.683-19.059-58.77-15.088
			c0,0,13.393-6.406,31.145-7.734c-6.722-0.824-13.055-1.104-18.075-0.475c-9.528,1.189-16.729,4.565-20.302,4.565
			c-3.576,0-5.559-6.354-11.516-7.148c-5.958-0.792-7.545,1.192-9.93,1.985c-2.381,0.793-1.877-2.605-8.336,0.793
			c-13.562,7.14-10.928,38.718-10.255,45.043C70.854,89.007,68.139,94.347,67.666,100.601z M123.963,137.294
			c-0.396,1.39-1.189,3.375-2.979,6.751c-1.787,3.376-2.381,2.384-3.772,4.565c-1.389,2.185-2.583,4.765-3.971,7.348
			c-1.389,2.578-2.779,4.764-2.779,5.758c0,0.993-1.786,4.567-2.582,5.359c-0.792,0.795-2.185,1.391-3.374,3.179
			c-1.189,1.785-7.148,2.183-7.148,2.183s-1.189-2.978-1.389-3.772c-0.198-0.794,3.176,0.396,3.971-0.397
			c0.794-0.793-0.993-3.177,0.199-4.565c1.191-1.393,2.186,0.595,3.375-0.198c0.594-1.194-0.795-4.566-1.392-5.756
			c-0.593-1.194,1.591-0.994,4.567-0.798c-0.593-1.19-2.582-8.536-2.582-8.536s2.582,0.595,4.766,0.793
			c-0.993-0.793-1.189-6.154-0.197-7.345c0.991-1.192,4.764,0.198,5.953,1.985c0,0,0-1.391,0.796-2.979
			c0.796-1.59,1.589-0.199,2.583-0.596c0.993-0.396,0-3.772,1.189-5.562c1.193-1.785,2.385-1.389,3.971-0.794
			C123.168,133.917,124.362,135.905,123.963,137.294z M150.832,153.604c0,0-0.715,0.468-1.543,0.88
			c0.332,1.291-0.229,3.106-3.754,6.796c0,0-3.146,3.952-4.842,4.675c-0.598,1.358-1.705,2.904-3.206,4.038
			c0,0-0.507,0.326-1.007,0.529c-0.055,0.171-0.153,0.361-0.227,0.545c-6.955,4.364-14.605,7.77-22.186,8.907
			c-0.08-1.13,0.002-2.129,0.352-2.833c1.276-2.556,7.839-2.994,10.852-1.993c-0.729-1.59-1.356-3.066-0.913-3.804
			c0.582-0.97,3.323-0.521,5.431,0.196c-0.833-1.821-1.697-3.599-1.194-4.436c0.669-1.105,4.16-0.357,6.294,0.522
			c-0.912-2.24-2.424-4.768-1.793-5.815c0.539-0.896,2.938-0.573,4.965,0.048c-1.051-2.938-1.956-6.636-1.08-8.379
			c0.93-1.852,4.939-2.465,7.93-2.179c-0.523-1.287-0.844-2.578-0.434-3.256c0.91-1.506,6.334,0.037,7.15,1.059
			C152.441,150.127,153.743,150.164,150.832,153.604z M139.967,57.612c8.027-5.197,17.137,3.86,27.399,9.53
			c-2.392-0.29-6.198-1.695-6.897-2.028c-0.373,0.591-4.238,4.273-9.454,2.406c-4.367-1.566-4.188-4.808-5.077-6.287
			c-0.887-1.479-4.287-2.328-5.176-1.92C139.875,59.718,139.395,57.98,139.967,57.612z M100.654,40.933
			c6.752-3.176,2.91,12.321-2.778,8.339C93.903,46.491,93.903,44.11,100.654,40.933z M86.757,47.683c0,0-3.576-5.559,1.19-7.544
			C92.713,38.152,90.331,40.933,86.757,47.683z M80.278,76.856c0.257-0.436,0.544-0.784,0.931-1.05
			C80.939,76.062,80.623,76.421,80.278,76.856z M79.779,76.687c1.882-6.685,4.992-18.283,6.58-22.65s-4.704,19.42,4.156,20.88
			C84.157,73.979,81.76,75.126,79.779,76.687z"/>
		<path fill="#041E41" d="M151.369,58.938c-3.443-1.082-5.717,4.14-0.947,6.898c1.662,0.963,1.736-0.514,0.525-1.662
			C148.17,61.544,155.119,60.118,151.369,58.938z"/>
	</g>
</g>
</svg>
